#!OML:ASF C:\Vicon Data\Big\jianyuan-13\jianyuan\Session 1\Capture.male.ASF
:FULLY-SPECIFIED
:DEGREES
28
root -8.130328 17.899463 -21.743373 10.652168 8.313952 2.834367
lowerback -13.055345 -3.644099 -2.628254 
upperback 1.981273 -4.527681 0.972578 
thorax 9.766721 -2.351050 1.555328 
lowerneck -2.384638 -1.255828 3.674010 
upperneck 1.601488 -1.714815 -3.879213 
head 0.836059 -0.880079 -1.863075 
rclavicle 0.000000 0.000000 
rhumerus -52.206293 -22.661676 -70.527717 
rradius 27.165034 
rwrist 34.751732 
rhand -16.468877 -16.839641 
rfingers 0.000000 
rthumb 9.747800 -46.594027 
lclavicle 0.000000 0.000000 
lhumerus -27.144040 0.735610 94.921075 
lradius 56.385366 
lwrist -19.693411 
lhand -19.406795 3.687441 
lfingers 0.000000 
lthumb 6.912476 33.554562 
rfemur -38.884714 3.426615 15.209802 
rtibia 31.065585 
rfoot -3.075862 -10.671815 
rtoes -24.890582 
lfemur 0.029098 2.515057 -18.912082 
ltibia 41.260142 
lfoot 5.348384 5.617870 
ltoes -46.890503 
29
root -8.164864 17.914268 -21.603399 10.742629 8.406205 2.695832
lowerback -13.042132 -3.637878 -2.494028 
upperback 1.941690 -4.546692 1.026923 
thorax 9.709980 -2.354000 1.536586 
lowerneck -2.416147 -1.224998 3.347728 
upperneck 1.590751 -1.671651 -3.499826 
head 0.843100 -0.856401 -1.682182 
rclavicle 0.000000 0.000000 
rhumerus -51.748281 -22.590008 -70.716890 
rradius 27.254679 
rwrist 34.669217 
rhand -16.410029 -16.871225 
rfingers 0.000000 
rthumb 9.804558 -46.622929 
lclavicle 0.000000 0.000000 
lhumerus -27.232818 0.988020 94.796014 
lradius 55.618915 
lwrist -20.524917 
lhand -19.086215 3.337814 
lfingers 0.000000 
lthumb 7.221940 33.194533 
rfemur -38.664966 3.471405 15.612307 
rtibia 31.415265 
rfoot -3.646962 -10.566407 
rtoes -24.617062 
lfemur -1.367144 3.113049 -18.422319 
ltibia 43.681441 
lfoot 6.413287 6.244410 
ltoes -46.092737 
30
root -8.187937 17.926923 -21.474562 10.756268 8.606601 2.409140
lowerback -12.901835 -3.628465 -2.125040 
upperback 1.873082 -4.606100 1.128234 
thorax 9.534278 -2.365155 1.436637 
lowerneck -2.390105 -1.235603 3.188263 
upperneck 1.687864 -1.680049 -3.397684 
head 0.869968 -0.860168 -1.621994 
rclavicle 0.000000 0.000000 
rhumerus -51.287820 -22.399837 -70.980505 
rradius 27.271062 
rwrist 34.893289 
rhand -16.742830 -17.267457 
rfingers 0.000000 
rthumb 9.483489 -47.034073 
lclavicle 0.000000 0.000000 
lhumerus -27.350861 1.275573 94.755834 
lradius 54.857793 
lwrist -21.230533 
lhand -18.968662 3.358609 
lfingers 0.000000 
lthumb 7.335381 33.211440 
rfemur -38.375680 3.381129 16.164227 
rtibia 31.710786 
rfoot -4.155862 -10.392186 
rtoes -24.788397 
lfemur -2.843502 3.431043 -17.883271 
ltibia 46.184274 
lfoot 7.366484 7.165163 
ltoes -44.605624 
31
root -8.211049 17.938153 -21.349902 10.786389 8.790311 2.169963
lowerback -12.803758 -3.543368 -1.790611 
upperback 1.845667 -4.551111 1.166074 
thorax 9.419925 -2.321880 1.308911 
lowerneck -2.379333 -1.357682 3.302447 
upperneck 1.674561 -1.844921 -3.487064 
head 0.856989 -0.942783 -1.672623 
rclavicle 0.000000 0.000000 
rhumerus -50.779458 -22.343656 -71.322589 
rradius 27.417874 
rwrist 34.166411 
rhand -16.946775 -17.271426 
rfingers 0.000000 
rthumb 9.286726 -47.046900 
lclavicle 0.000000 0.000000 
lhumerus -27.379706 1.577587 94.688578 
lradius 53.937773 
lwrist -22.409525 
lhand -18.914244 3.093650 
lfingers 0.000000 
lthumb 7.387932 32.944649 
rfemur -38.104604 3.029283 16.753104 
rtibia 31.980699 
rfoot -4.603904 -9.950193 
rtoes -24.885724 
lfemur -4.365737 3.726842 -17.429203 
ltibia 48.658827 
lfoot 8.030237 8.326381 
ltoes -42.321515 
